<svg version="1.0" xmlns="http://www.w3.org/2000/svg" width="410.667" height="472" viewBox="0 0 308 354"><path d="M2.6 2.6L0 5.3V354H303.3l2.3-2.8 2.4-2.7V5.3l-2.6-2.7-2.7-2.6H5.3L2.6 2.6zm160.8 60.8c6.7 2 16.1 8.1 21 13.7 7.9 9 13.6 25.2 13.6 38.4 0 6.7-2.8 18.6-6 25.7-2.7 6.1-3.3 6.2-1.3.3 1.2-3.7 1.3-4.8.2-6.1-.7-.8-1.9-1.2-2.7-.9-1 .4-1.2 0-.8-1.1.3-.8.6-2.2.6-3 0-1 .8-1.4 2.2-1.2 1.1.2 2.3-.3 2.5-1 .3-.7-.4-1.2-1.6-1.2-2 0-2.1-.4-1.5-6.3 1.5-15-4.1-30.3-14.9-40.3-3.4-3.2-6.1-6.1-6-6.4.1-.4-.8-.6-2-.6-1.2.1-2.1-.4-2-.9.1-.6-1.2-1-2.9-1.1-2.7-.1-2.4.1 2.2 2.5C179.7 82 187.9 96 188 115c0 15.8-4 26.8-13.4 36.8-4.9 5.3-12.9 11.2-15 11.2-.6 0 1.8-1.9 5.2-4.1 3.5-2.3 8.1-6.4 10.2-9 4.9-6.2 9.6-16.1 10.4-21.9l.6-4.5-2.7 5.7c-1.6 3.1-3.5 6.1-4.4 6.6-1.4.9-1.6.6-1.5-2.1.1-1.8.4-3.7.8-4.3.4-.6.1-2-.8-3-1.5-1.8-1.5-1.8-.9.2.3 1.4-.3 2.8-2 4.4l-2.5 2.3-.1-2.4c-.1-2.1-.2-2-1.1.8-1 3.1-3.8 5-6.7 4.4-.8-.1-1 .2-.5 1 .4.8.3 1-.5.5-.6-.4-1.9-.2-2.8.6-1 .7-.4-1 1.4-4.2 1.7-3 4.1-7.3 5.3-9.4l2.2-3.9-2.7 1.7c-1.5 1-7 5.4-12.2 9.8-5.2 4.3-9.7 7.7-10.1 7.4-.3-.3.2-1.4 1.1-2.3.8-1 1.6-2.3 1.7-2.8.2-1 12.7-10.2 17-12.5 4.3-2.3 1.1-2.1-10.1.7s-11.5 2.9-20.3 1.4c-7-1.1-9.3-1.2-10.8-.2-4.6 2.9-7.4-5.4-3.9-11.6l2.2-3.8-3 3.5c-1.6 1.9-2.9 4.2-2.9 5 .2 3.3-.3 5.1-1.2 4.5-.7-.4-.7-1.3 0-2.6.8-1.3.7-1.9 0-1.9-.6 0-.8-.5-.5-1 .3-.6.1-1-.5-1-.7 0-.9.7-.6 1.6.4.9.1 2.3-.5 3-1.3 1.6-3.3 1.9-2.4.4.3-.6 0-1-.7-1-.8-.1-.5-.7.7-1.6 1.9-1.6 1.9-1.6-.7-1.2-2.5.5-2.8.2-2.7-2.1 0-2.4.1-2.4 1-.6.7 1.6.8 1.3.6-1.6-.1-2.1.3-4.1 1.1-4.9.8-.7 1.1-2.2.7-3.9-.4-2-.3-2.3.5-1.1.9 1.2 1 1 .5-.9-.6-1.9-.4-2.3.9-1.8.9.4 1.6.2 1.6-.2 0-.5-.5-1.1-1.2-1.3-.7-.3.5-2.8 3.1-6.6 2.5-3.7 4.7-6 5.3-5.6.6.4.8.3.5-.3-.4-.6 1-2.5 3.1-4.3 3.1-2.7 3.2-2.8.5-1.1-12.5 8.3-21.1 27.3-20 44.6.3 4.9.1 6.9-.4 5.2-.4-1.5-.9-4.7-1-7-.1-2.3-.7-4.8-1.2-5.5-.6-.8-.5-1.2.2-1.2s.9-.5.6-1.1c-.5-.6-1.2-.4-2.1.8-1.2 1.6-1.3 1.5-1.4-1.8 0-7.8 7.6-25.6 14.1-32.8 2.5-2.7 3.3-3.1 4.1-2 .8 1.1.9 1 .4-.3-.3-1.2.8-2.9 3.7-5.4 2.5-2.2 3.2-3.1 1.7-2.4-4.5 2.4-14.6 13.4-18.2 20-4.2 7.7-6.5 14.4-7.7 22.5-.5 3.7-.9 4.8-1 2.8-.2-5.8 2-13.7 6.4-22.9 11.8-24.5 37-36.9 60.9-30zm13.5 3.9c7.3 4.4 16.3 14.3 20 22 11.3 23.6 6.9 51.3-11 69.8l-7.1 7.4 6.2-7c6.5-7.3 12.9-19.2 14.9-27.7 6.3-26.6-4.5-53.3-26.5-65.6-3.2-1.9-5-3.1-3.9-2.7 1.1.3 4.4 2 7.4 3.8zm-60.2 56.9c-.3.7-.5.2-.5-1.2s.2-1.9.5-1.3c.2.7.2 1.9 0 2.5zm15.8 5.1c.6.5-.6.1-2.5-.9s-3.9-1.9-4.5-2c-.5-.1-1.4-.2-1.8-.3-.5 0-.5-.6-.2-1.1.6-1 6.4 1.8 9 4.3zm5.3 5.5c2.8 1.9 5.2 4.1 5.2 4.9 0 1.1-.5 1-2.5-.3-1.4-.9-2.5-2-2.5-2.4 0-.5-.8-1.1-1.7-1.5-1-.3-3.4-1.9-5.3-3.6-4.3-3.7-1.3-2.4 6.8 2.9zm36.9-.2c-.9 1.8-1.6 2.3-2.2 1.5-.4-.7.1-2.1 1.1-3.2 2.3-2.6 2.9-1.7 1.1 1.7zm-69 .6c-.3.8-.6.5-.6-.6-.1-1.1.2-1.7.5-1.3.3.3.4 1.2.1 1.9zm50.6 5.3c-.3.9-.8 1.4-1 1.1-.3-.3-.2-.9.2-1.5.9-1.6 1.5-1.3.8.4zm-15.6 11.4c1-.9 1.3-.6 1.4 1.2 0 1.3.4 3.3.8 4.3.6 1.7 1.6.6 5.9-6.4 2.9-4.6 5.2-8 5.2-7.6 0 1.6-10.2 17.6-10.9 17.2-1.4-.9-9.1-14.6-9.1-16.3 0-.9 1.2.6 2.7 3.5 2.1 4.1 2.9 4.9 4 4.1zM185 145c0 .5-.4 1-1 1-.5 0-1-.5-1-1 0-.6.5-1 1-1 .6 0 1 .4 1 1zm-28 19c-.8.5-2.2.9-3 .9-1 0-.8-.3.5-.9 2.7-1.2 4.3-1.2 2.5 0zm-18.3 1.6c-.3.3-1.2.4-1.9.1-.8-.3-.5-.6.6-.6 1.1-.1 1.7.2 1.3.5zm12.6.1c-.7.2-2.1.2-3 0-1-.3-.4-.5 1.2-.5 1.7 0 2.4.2 1.8.5z"/><path d="M156.6 65.5c-.3.9-.6 2.2-.5 2.8 0 .7.5.1 1-1.2s.8-2.6.5-2.8c-.2-.2-.6.3-1 1.2zM144.6 65.8c-.3.5.1.9.9.9s1.2-.4.9-.9c-.3-.4-.7-.8-.9-.8-.2 0-.6.4-.9.8zM152.3 66.1c-1.3 1.3-.6 3.9.9 3.9.7 0 .6-.5-.1-1.3-.8-1-.7-1.7.1-2.5.7-.7 1-1.2.7-1.2-.3 0-1 .5-1.6 1.1zM159.3 67.8c-.8 1.4-.8 1.9.1 1.9.7 0 1.3-.9 1.3-1.9.1-1 .1-1.8 0-1.8s-.7.8-1.4 1.8zM126.5 69c-.3.6.1.7.9.4 1.8-.7 2.1-1.4.7-1.4-.6 0-1.3.4-1.6 1zM132.4 69.5c-.4.9-.1 2.2.6 2.8 1 .9 1.2.8.7-.5-.3-.9-.1-1.8.6-2.1.8-.2.8-.5-.1-1.1-.7-.4-1.5-.1-1.8.9zM164 69.1c0 .5.5.7 1 .4.6-.3 1-.8 1-1.1 0-.2-.4-.4-1-.4-.5 0-1 .5-1 1.1zM138 70c-.9.6-1 1-.3 1 .6 0 1.5-.5 1.8-1 .8-1.2.4-1.2-1.5 0zM124.5 73c-.3.5-.1 1.8.5 2.7 1 1.6 1.1 1.6.6.1-.3-.9 0-1.8.7-2.1.8-.2.8-.5 0-1-.7-.4-1.4-.3-1.8.3zM171.5 73.1c-.4.6-.5 1.2-.2 1.5.2.3.7-.2 1-1.1.7-1.7.1-2-.8-.4zM143.5 75c.3.5.8 1 1.1 1 .2 0 .4-.5.4-1 0-.6-.5-1-1.1-1-.5 0-.7.4-.4 1zM148.5 75c.3.5.8 1 1.1 1 .2 0 .4-.5.4-1 0-.6-.5-1-1.1-1-.5 0-.7.4-.4 1zM158.5 75c-.3.5-.1 1 .4 1 .6 0 1.1-.5 1.1-1 0-.6-.2-1-.4-1-.3 0-.8.4-1.1 1zM120.5 76c-.4.6-.4 1.4-.1 1.7.3.4.6 0 .6-.8 0-1.2.2-1.2 1 .1.5.8 1.2 1.2 1.5.9.3-.4-.1-1.2-.9-1.8-1-.9-1.6-.9-2.1-.1zM138.5 76c-.3.5-.1 1 .4 1 .6 0 1.1-.5 1.1-1 0-.6-.2-1-.4-1-.3 0-.8.4-1.1 1zM128.3 77.6c.4.4.1 1.4-.6 2.3-1.1 1.4-1 1.5.8.1 1.1-.8 2.1-1.5 2.3-1.6.2-.1-.5-.5-1.5-.8-.9-.4-1.4-.4-1 0zM168.5 80c.3.5.8 1 1.1 1 .2 0 .4-.5.4-1 0-.6-.5-1-1.1-1-.5 0-.7.4-.4 1zM114.2 83.4c.1 1 .8 1.7 1.3 1.7 1.5-.1 1.2-2.4-.3-2.9-.9-.3-1.3.2-1 1.2zM145 87c0 .5.5 1 1 1 .6 0 1-.5 1-1 0-.6-.4-1-1-1-.5 0-1 .4-1 1zM140.5 88c.3.5.8 1 1.1 1 .2 0 .4-.5.4-1 0-.6-.5-1-1.1-1-.5 0-.7.4-.4 1zM174 88c0 .5.5 1 1.1 1 .5 0 .7-.5.4-1-.3-.6-.8-1-1.1-1-.2 0-.4.4-.4 1zM123.7 89.7c-.4.3-.7 1.1-.7 1.7 0 .6.5.5 1.2-.2.6-.6.9-1.4.7-1.7-.3-.3-.9-.2-1.2.2zM126.7 92.6c-2.1 2-3.7 3.8-3.5 4 .3.2 2.2-1.4 4.3-3.6 4.8-5 4.3-5.2-.8-.4zM143 90.9c0 2.5.6 2.7 1.3.6.4-.8.2-1.7-.3-2-.6-.4-1 .3-1 1.4zM116.9 91.7c-.8 1-2.1 2.7-2.9 3.7-1.4 1.8-1.4 1.8.7.6 1.2-.8 2.6-2.4 3.2-3.7 1.3-2.7.9-2.9-1-.6zM178.6 91.8c-.3.5.1.9.9.9s1.5-.4 1.5-.9c0-.4-.4-.8-.9-.8-.6 0-1.2.4-1.5.8zM169 94.5c-.7.9-.8 1.5-.2 1.5.5 0 1.2-.7 1.6-1.5.3-.8.4-1.5.2-1.5s-.9.7-1.6 1.5zM187.5 94.1c-.4.6-.5 1.3-.2 1.6.7.7 2.7-.6 2.7-1.8 0-1.2-1.7-1.2-2.5.2zM143.2 97.1c-.4 6.3-1.4 8.5-5 10.9-2 1.4-3.9 2.7-4.2 3-1.7 1.8-11.4 9-11.7 8.6-.2-.2.6-2 1.8-4 1.2-2 2-3.9 1.7-4.1-.2-.3-1.7 2-3.2 5.1-1.6 3-2.6 5.7-2.4 5.9.2.2 3.3-1.4 6.8-3.5 3.6-2.1 8.8-5.2 11.7-6.9l5.2-3.1 12.1 5.2c6.6 2.8 12.3 4.9 12.6 4.5.3-.3-1.1-3.5-3.1-7.2-2.1-3.6-3.9-6.4-4.2-6.2-.2.3 1.2 3.1 3.1 6.3 1.9 3.3 3.3 6 3.2 6.2-.2.1-4.1-1.9-8.7-4.6-4.6-2.7-9.7-5.6-11.4-6.3-2.7-1.3-3.1-2-3.6-6.9-.3-3-.6-4.3-.7-2.9zM155 95.2c0 .7 4.5 7.7 5.7 8.8 1 .9-2.5-5.4-4.1-7.5-.8-1.1-1.6-1.7-1.6-1.3zM173 96c0 .5.5 1 1 1 .6 0 1-.5 1-1 0-.6-.4-1-1-1-.5 0-1 .4-1 1zM189 97.5c-1.1 1.3-1 1.4.4.9.9-.3 1.6-1 1.6-1.5 0-1.3-.6-1.1-2 .6zM182.7 99c.3 1.1.9 2 1.5 2 .5 0 .4-.9-.2-2-.6-1.1-1.2-2-1.4-2-.2 0-.2.9.1 2zM118.4 99.1c-.4.7-.3.9.4.5.5-.3 1.3 0 1.5.6.4.9.6 1 .6.1.1-1.7-1.6-2.5-2.5-1.2zM131 99c0 .5.5 1 1 1 .6 0 1-.5 1-1 0-.6-.4-1-1-1-.5 0-1 .4-1 1zM189.5 100c-.3.6.1.7.9.4 1.8-.7 2.1-1.4.7-1.4-.6 0-1.3.4-1.6 1zM115 101.5c-1.1 1.3-1 1.4.4.9.9-.3 1.6-1 1.6-1.5 0-1.3-.6-1.1-2 .6zM165.5 101c.3.5.8 1 1.1 1 .2 0 .4-.5.4-1 0-.6-.5-1-1.1-1-.5 0-.7.4-.4 1z"/><path d="M147 102.9c0 .5.7 1.1 1.4 1.4 1 .4 1.3.1.9-.9-.6-1.5-2.3-1.9-2.3-.5zM184 104.4c0 1.4.4 2.7.8 3 .5.3.6-.8.4-2.5-.5-3.5-1.2-3.8-1.2-.5zM190 103c0 .5.7.7 1.5.4.8-.4 1.5-.8 1.5-1 0-.2-.7-.4-1.5-.4s-1.5.4-1.5 1zM122 105.2c-1.2 2.2-1.2 2.2.6.6 1-1 1.5-2 1.2-2.4-.4-.3-1.2.5-1.8 1.8zM138 104.1c0 .5.5.7 1 .4.6-.3 1-.8 1-1.1 0-.2-.4-.4-1-.4-.5 0-1 .5-1 1.1zM116.3 105.2c-2.3 3-2.4 4.1-.2 2.1 1.2-1.2 2-2.5 1.7-2.8-.3-.3-1 0-1.5.7zM191.6 104.9c-.4.7-.5 1.5-.2 1.8.9.9 1.9-.4 1.4-1.8-.4-1.1-.6-1.1-1.2 0zM101 107c0 .5.7 1 1.6 1 .8 0 1.2-.5.9-1-.3-.6-1-1-1.6-1-.5 0-.9.4-.9 1zM177.5 107c-.3.5-.1 1 .4 1 .6 0 1.1-.5 1.1-1 0-.6-.2-1-.4-1-.3 0-.8.4-1.1 1zM126 109.1c0 .5.5.7 1 .4.6-.3 1-.8 1-1.1 0-.2-.4-.4-1-.4-.5 0-1 .5-1 1.1zM191.5 109c-.3.6.1.7.9.4 1.8-.7 2.1-1.4.7-1.4-.6 0-1.3.4-1.6 1zM101.5 110c.3.5.1 1-.4 1-.6 0-1.1.4-1.1 1 0 1.9 2.6 1 2.7-1 .1-1.1-.3-2-.8-2-.6 0-.7.4-.4 1zM112.7 110.7c-1 .9-.9 2.3.2 2.3.5 0 1.1-.7 1.5-1.5.5-1.5-.5-2-1.7-.8zM173 111.1c0 .5.5.7 1 .4.6-.3 1-.8 1-1.1 0-.2-.4-.4-1-.4-.5 0-1 .5-1 1.1zM183.7 116c-1.4 2.7-2.3 5-1.9 5 .9 0 5.5-9.1 4.9-9.6-.2-.3-1.6 1.8-3 4.6zM191 112c0 .5.4 1 .9 1 .6 0 1.3-.5 1.6-1 .3-.6-.1-1-.9-1-.9 0-1.6.4-1.6 1zM176.5 114.4c1 1.4 1.9 2.6 2.2 2.6.7 0-1.7-3.9-2.8-4.6-.6-.3-.3.5.6 2zM191.1 116.8c0 1.6.3 2.1.6 1.2.3-.8 1-1.8 1.5-2.1.5-.3.3-.9-.6-1.2-1.2-.5-1.6 0-1.5 2.1zM191 121.5c-1 1.3-.9 1.5 1.1 1.4 1.3 0 1.8-.3 1.1-.6-.6-.2-1-.9-.6-1.4.9-1.5-.2-1-1.6.6zM179.5 124.1c-.4.6-.5 1.2-.2 1.5.2.3.7-.2 1-1.1.7-1.7.1-2-.8-.4zM190 125c0 .5.7 1 1.6 1 .8 0 1.2-.5.9-1-.3-.6-1-1-1.6-1-.5 0-.9.4-.9 1z"/></svg>